<svg xmlns="http://www.w3.org/2000/svg" xmlns:xlink="http://www.w3.org/1999/xlink" width="2122" height="1710" viewBox="0 0 2122 1710">
  <defs>
    <filter id="Path_15" x="759" y="552" width="613.975" height="673.043" filterUnits="userSpaceOnUse">
      <feOffset dy="150" input="SourceAlpha"/>
      <feGaussianBlur stdDeviation="30" result="blur"/>
      <feFlood flood-color="#d90429" flood-opacity="0.6"/>
      <feComposite operator="in" in2="blur"/>
      <feComposite in="SourceGraphic"/>
    </filter>
    <filter id="Path_28" x="759" y="28" width="613.975" height="923.043" filterUnits="userSpaceOnUse">
      <feOffset dy="400" input="SourceAlpha"/>
      <feGaussianBlur stdDeviation="30" result="blur-2"/>
      <feFlood flood-color="#d90429" flood-opacity="0.6"/>
      <feComposite operator="in" in2="blur-2"/>
      <feComposite in="SourceGraphic"/>
    </filter>
    <filter id="Path_16" x="479" y="749" width="613.975" height="613.043" filterUnits="userSpaceOnUse">
      <feOffset dy="50" input="SourceAlpha"/>
      <feGaussianBlur stdDeviation="30" result="blur-3"/>
      <feFlood flood-color="#d90429" flood-opacity="0.6"/>
      <feComposite operator="in" in2="blur-3"/>
      <feComposite in="SourceGraphic"/>
    </filter>
    <filter id="Path_27" x="479" y="323" width="613.975" height="763.043" filterUnits="userSpaceOnUse">
      <feOffset dy="240" input="SourceAlpha"/>
      <feGaussianBlur stdDeviation="30" result="blur-4"/>
      <feFlood flood-color="#d90429" flood-opacity="0.6"/>
      <feComposite operator="in" in2="blur-4"/>
      <feComposite in="SourceGraphic"/>
    </filter>
    <filter id="Path_29" x="202" y="552" width="613.975" height="673.043" filterUnits="userSpaceOnUse">
      <feOffset dy="150" input="SourceAlpha"/>
      <feGaussianBlur stdDeviation="30" result="blur-5"/>
      <feFlood flood-color="#d90429" flood-opacity="0.6"/>
      <feComposite operator="in" in2="blur-5"/>
      <feComposite in="SourceGraphic"/>
    </filter>
    <filter id="Path_17" x="247" y="946" width="523.975" height="523.043" filterUnits="userSpaceOnUse">
      <feOffset dy="30" input="SourceAlpha"/>
      <feGaussianBlur stdDeviation="15" result="blur-6"/>
      <feFlood flood-color="#d90429" flood-opacity="0.6"/>
      <feComposite operator="in" in2="blur-6"/>
      <feComposite in="SourceGraphic"/>
    </filter>
    <filter id="Path_30" x="-72" y="749" width="613.975" height="613.043" filterUnits="userSpaceOnUse">
      <feOffset dy="50" input="SourceAlpha"/>
      <feGaussianBlur stdDeviation="30" result="blur-7"/>
      <feFlood flood-color="#d90429" flood-opacity="0.6"/>
      <feComposite operator="in" in2="blur-7"/>
      <feComposite in="SourceGraphic"/>
    </filter>
    <filter id="Path_18" x="1033" y="323" width="613.975" height="763.043" filterUnits="userSpaceOnUse">
      <feOffset dy="240" input="SourceAlpha"/>
      <feGaussianBlur stdDeviation="30" result="blur-8"/>
      <feFlood flood-color="#d90429" flood-opacity="0.6"/>
      <feComposite operator="in" in2="blur-8"/>
      <feComposite in="SourceGraphic"/>
    </filter>
    <filter id="Path_19" x="1301" y="552" width="613.975" height="673.043" filterUnits="userSpaceOnUse">
      <feOffset dy="150" input="SourceAlpha"/>
      <feGaussianBlur stdDeviation="30" result="blur-9"/>
      <feFlood flood-color="#d90429" flood-opacity="0.6"/>
      <feComposite operator="in" in2="blur-9"/>
      <feComposite in="SourceGraphic"/>
    </filter>
    <filter id="Path_20" x="1033" y="749" width="613.975" height="613.043" filterUnits="userSpaceOnUse">
      <feOffset dy="50" input="SourceAlpha"/>
      <feGaussianBlur stdDeviation="30" result="blur-10"/>
      <feFlood flood-color="#d90429" flood-opacity="0.6"/>
      <feComposite operator="in" in2="blur-10"/>
      <feComposite in="SourceGraphic"/>
    </filter>
    <filter id="Path_21" x="804" y="946" width="523.975" height="523.043" filterUnits="userSpaceOnUse">
      <feOffset dy="30" input="SourceAlpha"/>
      <feGaussianBlur stdDeviation="15" result="blur-11"/>
      <feFlood flood-color="#d90429" flood-opacity="0.6"/>
      <feComposite operator="in" in2="blur-11"/>
      <feComposite in="SourceGraphic"/>
    </filter>
    <filter id="Path_22" x="479" y="1029" width="613.975" height="613.043" filterUnits="userSpaceOnUse">
      <feOffset dy="10" input="SourceAlpha"/>
      <feGaussianBlur stdDeviation="30" result="blur-12"/>
      <feFlood flood-color="#d90429"/>
      <feComposite operator="in" in2="blur-12"/>
      <feComposite in="SourceGraphic"/>
    </filter>
    <filter id="Path_23" x="1346" y="946" width="523.975" height="523.043" filterUnits="userSpaceOnUse">
      <feOffset dy="30" input="SourceAlpha"/>
      <feGaussianBlur stdDeviation="15" result="blur-13"/>
      <feFlood flood-color="#d90429" flood-opacity="0.6"/>
      <feComposite operator="in" in2="blur-13"/>
      <feComposite in="SourceGraphic"/>
    </filter>
    <filter id="Path_24" x="1033" y="1029" width="613.975" height="613.043" filterUnits="userSpaceOnUse">
      <feOffset dy="10" input="SourceAlpha"/>
      <feGaussianBlur stdDeviation="30" result="blur-14"/>
      <feFlood flood-color="#d90429"/>
      <feComposite operator="in" in2="blur-14"/>
      <feComposite in="SourceGraphic"/>
    </filter>
    <filter id="Path_25" x="819" y="1228" width="493.975" height="493.043" filterUnits="userSpaceOnUse">
      <feOffset dy="10" input="SourceAlpha"/>
      <feGaussianBlur stdDeviation="10" result="blur-15"/>
      <feFlood flood-color="#d90429" flood-opacity="0.6"/>
      <feComposite operator="in" in2="blur-15"/>
      <feComposite in="SourceGraphic"/>
    </filter>
    <filter id="Path_26" x="1581" y="749" width="613.975" height="613.043" filterUnits="userSpaceOnUse">
      <feOffset dy="50" input="SourceAlpha"/>
      <feGaussianBlur stdDeviation="30" result="blur-16"/>
      <feFlood flood-color="#d90429" flood-opacity="0.6"/>
      <feComposite operator="in" in2="blur-16"/>
      <feComposite in="SourceGraphic"/>
    </filter>
    <clipPath id="clip-cube">
      <rect width="2122" height="1710"/>
    </clipPath>
  </defs>
  <g id="cube" clip-path="url(#clip-cube)">
    <g id="Group_4" data-name="Group 4" transform="translate(-139 -345)">
      <g transform="matrix(1, 0, 0, 1, 139, 345)" filter="url(#Path_15)">
        <g id="Path_15-2" data-name="Path 15" transform="translate(956.37 765.03) rotate(-43)" fill="#d90429">
          <path d="M 220.9252319335938 225.4525299072266 L 20.13415145874023 169.5183410644531 C 14.73117733001709 167.9087066650391 10.51548767089844 165.3377990722656 7.250984191894531 161.6601257324219 C 4.030978679656982 158.0325927734375 2.013420343399048 153.6370239257813 0.4645695388317108 149.8150939941406 L -77.7567138671875 -53.11349105834961 C -79.29704284667969 -58.16814422607422 -81.04691314697266 -65.2725830078125 -78.51839447021484 -68.68711853027344 C -77.4508056640625 -70.12879180908203 -75.71981048583984 -70.82962036132813 -73.22651672363281 -70.82962036132813 C -70.69313812255859 -70.82962036132813 -67.38530731201172 -70.07220458984375 -63.39488983154297 -68.57845306396484 C -43.67797470092773 -61.19766235351563 138.9986114501953 -0.1416213810443878 140.8415222167969 0.4742119610309601 L 140.8703155517578 0.4838786125183105 L 140.9001159667969 0.4899202883243561 C 143.2291564941406 0.9646703004837036 145.4140625 1.745420336723328 147.3941497802734 2.810420274734497 C 149.3581085205078 3.866753578186035 151.1777801513672 5.233545303344727 152.8026580810547 6.872878551483154 C 156.0288543701172 10.12783718109131 158.6276550292969 14.59879493713379 160.5268249511719 20.16154479980469 L 160.5305633544922 20.17258644104004 L 160.5348663330078 20.18342018127441 L 235.3670959472656 209.9509735107422 C 235.3556060791016 215.5277252197266 234.3268432617188 219.2666473388672 232.1321563720703 221.7126312255859 C 230.9937286376953 222.9814147949219 229.5450286865234 223.8986663818359 227.7032318115234 224.5168304443359 C 225.8427581787109 225.1412811279297 223.6251525878906 225.4474792480469 220.9252319335938 225.4525299072266 Z" stroke="none"/>
          <path d="M -73.2265625 -70.32962036132813 C -75.55035400390625 -70.32962036132813 -77.14988708496094 -69.69503784179688 -78.11659240722656 -68.38957214355469 C -79.10009765625 -67.06149291992188 -79.47172546386719 -64.94953918457031 -79.22114562988281 -62.11233520507813 C -79.01417541503906 -59.76875305175781 -78.38044738769531 -56.87837219238281 -77.28372192382813 -53.27664184570313 L 0.929962158203125 149.6322784423828 C 2.462600708007813 153.4136199951172 4.456573486328125 157.7588653564453 7.624893188476563 161.3281707763672 C 10.82498168945313 164.9332733154297 14.963623046875 167.4556121826172 20.27674865722656 169.0390167236328 L 220.9928894042969 224.9523315429688 C 223.60693359375 224.9423980712891 225.7511444091797 224.6446228027344 227.5441589355469 224.0427856445313 C 229.3017730712891 223.452880859375 230.6808166503906 222.5814514160156 231.7599792480469 221.3787231445313 C 233.8554077148438 219.0433807373047 234.8442687988281 215.4385986328125 234.8667907714844 210.0453186035156 L 160.0696868896484 20.36683654785156 L 160.0611572265625 20.34516906738281 L 160.0536041259766 20.32308959960938 C 158.1791076660156 14.83250427246094 155.6200256347656 10.42562866210938 152.4475250244141 7.224838256835938 C 150.8575286865234 5.62066650390625 149.0776519775391 4.283584594726563 147.1573181152344 3.250747680664063 C 145.2202301025391 2.208877563476563 143.0814361572266 1.444839477539063 140.8002777099609 0.9798431396484375 L 140.7406921386719 0.96771240234375 L 140.6830291748047 0.948455810546875 C 138.8400268554688 0.332550048828125 -43.84501647949219 -60.72628784179688 -63.57017517089844 -68.11016845703125 C -67.50442504882813 -69.58287048339844 -70.75331115722656 -70.32962036132813 -73.2265625 -70.32962036132813 M -73.2265625 -71.32962036132813 C -70.73617553710938 -71.32962036132813 -67.46391296386719 -70.63551330566406 -63.2196044921875 -69.04670715332031 C -43.28297424316406 -61.58366394042969 140.9999847412109 0 140.9999847412109 0 C 150.5887756347656 1.954544067382813 157.1652374267578 8.76776123046875 160.9999847412109 20 L 235.8671875 209.8562622070313 C 235.8671875 220.9019622802734 231.9027709960938 225.9525756835938 220.8571166992188 225.9525756835938 L 19.99998474121094 170 C 8.081436157226563 166.4512176513672 3.5906982421875 158.8608856201172 -1.52587890625e-05 150 L -78.22967529296875 -52.95037841796875 C -80.93855285644531 -61.83387756347656 -82.43408203125 -71.32962036132813 -73.2265625 -71.32962036132813 Z" stroke="none" fill="#d90429"/>
        </g>
      </g>
      <g transform="matrix(1, 0, 0, 1, 139, 345)" filter="url(#Path_28)">
        <g id="Path_28-2" data-name="Path 28" transform="translate(956.37 241.03) rotate(-43)" fill="#d90429">
          <path d="M 220.9252319335938 225.4525299072266 L 20.13415145874023 169.5183410644531 C 14.73117733001709 167.9087066650391 10.51548767089844 165.3377990722656 7.250984191894531 161.6601257324219 C 4.030978679656982 158.0325927734375 2.013420343399048 153.6370239257813 0.4645695388317108 149.8150939941406 L -77.7567138671875 -53.11349105834961 C -79.29704284667969 -58.16814422607422 -81.04691314697266 -65.2725830078125 -78.51839447021484 -68.68711853027344 C -77.4508056640625 -70.12879180908203 -75.71981048583984 -70.82962036132813 -73.22651672363281 -70.82962036132813 C -70.69313812255859 -70.82962036132813 -67.38530731201172 -70.07220458984375 -63.39488983154297 -68.57845306396484 C -43.67797470092773 -61.19766235351563 138.9986114501953 -0.1416213810443878 140.8415222167969 0.4742119610309601 L 140.8703155517578 0.4838786125183105 L 140.9001159667969 0.4899202883243561 C 143.2291564941406 0.9646703004837036 145.4140625 1.745420336723328 147.3941497802734 2.810420274734497 C 149.3581085205078 3.866753578186035 151.1777801513672 5.233545303344727 152.8026580810547 6.872878551483154 C 156.0288543701172 10.12783718109131 158.6276550292969 14.59879493713379 160.5268249511719 20.16154479980469 L 160.5305633544922 20.17258644104004 L 160.5348663330078 20.18342018127441 L 235.3670959472656 209.9509735107422 C 235.3556060791016 215.5277252197266 234.3268432617188 219.2666473388672 232.1321563720703 221.7126312255859 C 230.9937286376953 222.9814147949219 229.5450286865234 223.8986663818359 227.7032318115234 224.5168304443359 C 225.8427581787109 225.1412811279297 223.6251525878906 225.4474792480469 220.9252319335938 225.4525299072266 Z" stroke="none"/>
          <path d="M -73.2265625 -70.32962036132813 C -75.55035400390625 -70.32962036132813 -77.14988708496094 -69.69503784179688 -78.11659240722656 -68.38957214355469 C -79.10009765625 -67.06149291992188 -79.47172546386719 -64.94953918457031 -79.22114562988281 -62.11233520507813 C -79.01417541503906 -59.76875305175781 -78.38044738769531 -56.87837219238281 -77.28372192382813 -53.27664184570313 L 0.929962158203125 149.6322784423828 C 2.462600708007813 153.4136199951172 4.456573486328125 157.7588653564453 7.624893188476563 161.3281707763672 C 10.82498168945313 164.9332733154297 14.963623046875 167.4556121826172 20.27674865722656 169.0390167236328 L 220.9928894042969 224.9523315429688 C 223.60693359375 224.9423980712891 225.7511444091797 224.6446228027344 227.5441589355469 224.0427856445313 C 229.3017730712891 223.452880859375 230.6808166503906 222.5814514160156 231.7599792480469 221.3787231445313 C 233.8554077148438 219.0433807373047 234.8442687988281 215.4385986328125 234.8667907714844 210.0453186035156 L 160.0696868896484 20.36683654785156 L 160.0611572265625 20.34516906738281 L 160.0536041259766 20.32308959960938 C 158.1791076660156 14.83250427246094 155.6200256347656 10.42562866210938 152.4475250244141 7.224838256835938 C 150.8575286865234 5.62066650390625 149.0776519775391 4.283584594726563 147.1573181152344 3.250747680664063 C 145.2202301025391 2.208877563476563 143.0814361572266 1.444839477539063 140.8002777099609 0.9798431396484375 L 140.7406921386719 0.96771240234375 L 140.6830291748047 0.948455810546875 C 138.8400268554688 0.332550048828125 -43.84501647949219 -60.72628784179688 -63.57017517089844 -68.11016845703125 C -67.50442504882813 -69.58287048339844 -70.75331115722656 -70.32962036132813 -73.2265625 -70.32962036132813 M -73.2265625 -71.32962036132813 C -70.73617553710938 -71.32962036132813 -67.46391296386719 -70.63551330566406 -63.2196044921875 -69.04670715332031 C -43.28297424316406 -61.58366394042969 140.9999847412109 0 140.9999847412109 0 C 150.5887756347656 1.954544067382813 157.1652374267578 8.76776123046875 160.9999847412109 20 L 235.8671875 209.8562622070313 C 235.8671875 220.9019622802734 231.9027709960938 225.9525756835938 220.8571166992188 225.9525756835938 L 19.99998474121094 170 C 8.081436157226563 166.4512176513672 3.5906982421875 158.8608856201172 -1.52587890625e-05 150 L -78.22967529296875 -52.95037841796875 C -80.93855285644531 -61.83387756347656 -82.43408203125 -71.32962036132813 -73.2265625 -71.32962036132813 Z" stroke="none" fill="#d90429"/>
        </g>
      </g>
      <g transform="matrix(1, 0, 0, 1, 139, 345)" filter="url(#Path_16)">
        <g id="Path_16-2" data-name="Path 16" transform="translate(676.37 1002.03) rotate(-43)" fill="#d90429">
          <path d="M 220.9252319335938 225.4525299072266 L 20.13415145874023 169.5183410644531 C 14.73117733001709 167.9087066650391 10.51548767089844 165.3377990722656 7.250984191894531 161.6601257324219 C 4.030978679656982 158.0325927734375 2.013420343399048 153.6370239257813 0.4645695388317108 149.8150939941406 L -77.7567138671875 -53.11349105834961 C -79.29704284667969 -58.16814422607422 -81.04691314697266 -65.2725830078125 -78.51839447021484 -68.68711853027344 C -77.4508056640625 -70.12879180908203 -75.71981048583984 -70.82962036132813 -73.22651672363281 -70.82962036132813 C -70.69313812255859 -70.82962036132813 -67.38530731201172 -70.07220458984375 -63.39488983154297 -68.57845306396484 C -43.67797470092773 -61.19766235351563 138.9986114501953 -0.1416213810443878 140.8415222167969 0.4742119610309601 L 140.8703155517578 0.4838786125183105 L 140.9001159667969 0.4899202883243561 C 143.2291564941406 0.9646703004837036 145.4140625 1.745420336723328 147.3941497802734 2.810420274734497 C 149.3581085205078 3.866753578186035 151.1777801513672 5.233545303344727 152.8026580810547 6.872878551483154 C 156.0288543701172 10.12783718109131 158.6276550292969 14.59879493713379 160.5268249511719 20.16154479980469 L 160.5305633544922 20.17258644104004 L 160.5348663330078 20.18342018127441 L 235.3670959472656 209.9509735107422 C 235.3556060791016 215.5277252197266 234.3268432617188 219.2666473388672 232.1321563720703 221.7126312255859 C 230.9937286376953 222.9814147949219 229.5450286865234 223.8986663818359 227.7032318115234 224.5168304443359 C 225.8427581787109 225.1412811279297 223.6251525878906 225.4474792480469 220.9252319335938 225.4525299072266 Z" stroke="none"/>
          <path d="M -73.2265625 -70.32962036132813 C -75.55035400390625 -70.32962036132813 -77.14988708496094 -69.69503784179688 -78.11659240722656 -68.38957214355469 C -79.10009765625 -67.06149291992188 -79.47172546386719 -64.94953918457031 -79.22114562988281 -62.11233520507813 C -79.01417541503906 -59.76875305175781 -78.38044738769531 -56.87837219238281 -77.28372192382813 -53.27664184570313 L 0.929962158203125 149.6322784423828 C 2.462600708007813 153.4136199951172 4.456573486328125 157.7588653564453 7.624893188476563 161.3281707763672 C 10.82498168945313 164.9332733154297 14.963623046875 167.4556121826172 20.27674865722656 169.0390167236328 L 220.9928894042969 224.9523315429688 C 223.60693359375 224.9423980712891 225.7511444091797 224.6446228027344 227.5441589355469 224.0427856445313 C 229.3017730712891 223.452880859375 230.6808166503906 222.5814514160156 231.7599792480469 221.3787231445313 C 233.8554077148438 219.0433807373047 234.8442687988281 215.4385986328125 234.8667907714844 210.0453186035156 L 160.0696868896484 20.36683654785156 L 160.0611572265625 20.34516906738281 L 160.0536041259766 20.32308959960938 C 158.1791076660156 14.83250427246094 155.6200256347656 10.42562866210938 152.4475250244141 7.224838256835938 C 150.8575286865234 5.62066650390625 149.0776519775391 4.283584594726563 147.1573181152344 3.250747680664063 C 145.2202301025391 2.208877563476563 143.0814361572266 1.444839477539063 140.8002777099609 0.9798431396484375 L 140.7406921386719 0.96771240234375 L 140.6830291748047 0.948455810546875 C 138.8400268554688 0.332550048828125 -43.84501647949219 -60.72628784179688 -63.57017517089844 -68.11016845703125 C -67.50442504882813 -69.58287048339844 -70.75331115722656 -70.32962036132813 -73.2265625 -70.32962036132813 M -73.2265625 -71.32962036132813 C -70.73617553710938 -71.32962036132813 -67.46391296386719 -70.63551330566406 -63.2196044921875 -69.04670715332031 C -43.28297424316406 -61.58366394042969 140.9999847412109 0 140.9999847412109 0 C 150.5887756347656 1.954544067382813 157.1652374267578 8.76776123046875 160.9999847412109 20 L 235.8671875 209.8562622070313 C 235.8671875 220.9019622802734 231.9027709960938 225.9525756835938 220.8571166992188 225.9525756835938 L 19.99998474121094 170 C 8.081436157226563 166.4512176513672 3.5906982421875 158.8608856201172 -1.52587890625e-05 150 L -78.22967529296875 -52.95037841796875 C -80.93855285644531 -61.83387756347656 -82.43408203125 -71.32962036132813 -73.2265625 -71.32962036132813 Z" stroke="none" fill="#d90429"/>
        </g>
      </g>
      <g transform="matrix(1, 0, 0, 1, 139, 345)" filter="url(#Path_27)">
        <g id="Path_27-2" data-name="Path 27" transform="translate(676.37 536.03) rotate(-43)" fill="#d90429">
          <path d="M 220.9252319335938 225.4525299072266 L 20.13415145874023 169.5183410644531 C 14.73117733001709 167.9087066650391 10.51548767089844 165.3377990722656 7.250984191894531 161.6601257324219 C 4.030978679656982 158.0325927734375 2.013420343399048 153.6370239257813 0.4645695388317108 149.8150939941406 L -77.7567138671875 -53.11349105834961 C -79.29704284667969 -58.16814422607422 -81.04691314697266 -65.2725830078125 -78.51839447021484 -68.68711853027344 C -77.4508056640625 -70.12879180908203 -75.71981048583984 -70.82962036132813 -73.22651672363281 -70.82962036132813 C -70.69313812255859 -70.82962036132813 -67.38530731201172 -70.07220458984375 -63.39488983154297 -68.57845306396484 C -43.67797470092773 -61.19766235351563 138.9986114501953 -0.1416213810443878 140.8415222167969 0.4742119610309601 L 140.8703155517578 0.4838786125183105 L 140.9001159667969 0.4899202883243561 C 143.2291564941406 0.9646703004837036 145.4140625 1.745420336723328 147.3941497802734 2.810420274734497 C 149.3581085205078 3.866753578186035 151.1777801513672 5.233545303344727 152.8026580810547 6.872878551483154 C 156.0288543701172 10.12783718109131 158.6276550292969 14.59879493713379 160.5268249511719 20.16154479980469 L 160.5305633544922 20.17258644104004 L 160.5348663330078 20.18342018127441 L 235.3670959472656 209.9509735107422 C 235.3556060791016 215.5277252197266 234.3268432617188 219.2666473388672 232.1321563720703 221.7126312255859 C 230.9937286376953 222.9814147949219 229.5450286865234 223.8986663818359 227.7032318115234 224.5168304443359 C 225.8427581787109 225.1412811279297 223.6251525878906 225.4474792480469 220.9252319335938 225.4525299072266 Z" stroke="none"/>
          <path d="M -73.2265625 -70.32962036132813 C -75.55035400390625 -70.32962036132813 -77.14988708496094 -69.69503784179688 -78.11659240722656 -68.38957214355469 C -79.10009765625 -67.06149291992188 -79.47172546386719 -64.94953918457031 -79.22114562988281 -62.11233520507813 C -79.01417541503906 -59.76875305175781 -78.38044738769531 -56.87837219238281 -77.28372192382813 -53.27664184570313 L 0.929962158203125 149.6322784423828 C 2.462600708007813 153.4136199951172 4.456573486328125 157.7588653564453 7.624893188476563 161.3281707763672 C 10.82498168945313 164.9332733154297 14.963623046875 167.4556121826172 20.27674865722656 169.0390167236328 L 220.9928894042969 224.9523315429688 C 223.60693359375 224.9423980712891 225.7511444091797 224.6446228027344 227.5441589355469 224.0427856445313 C 229.3017730712891 223.452880859375 230.6808166503906 222.5814514160156 231.7599792480469 221.3787231445313 C 233.8554077148438 219.0433807373047 234.8442687988281 215.4385986328125 234.8667907714844 210.0453186035156 L 160.0696868896484 20.36683654785156 L 160.0611572265625 20.34516906738281 L 160.0536041259766 20.32308959960938 C 158.1791076660156 14.83250427246094 155.6200256347656 10.42562866210938 152.4475250244141 7.224838256835938 C 150.8575286865234 5.62066650390625 149.0776519775391 4.283584594726563 147.1573181152344 3.250747680664063 C 145.2202301025391 2.208877563476563 143.0814361572266 1.444839477539063 140.8002777099609 0.9798431396484375 L 140.7406921386719 0.96771240234375 L 140.6830291748047 0.948455810546875 C 138.8400268554688 0.332550048828125 -43.84501647949219 -60.72628784179688 -63.57017517089844 -68.11016845703125 C -67.50442504882813 -69.58287048339844 -70.75331115722656 -70.32962036132813 -73.2265625 -70.32962036132813 M -73.2265625 -71.32962036132813 C -70.73617553710938 -71.32962036132813 -67.46391296386719 -70.63551330566406 -63.2196044921875 -69.04670715332031 C -43.28297424316406 -61.58366394042969 140.9999847412109 0 140.9999847412109 0 C 150.5887756347656 1.954544067382813 157.1652374267578 8.76776123046875 160.9999847412109 20 L 235.8671875 209.8562622070313 C 235.8671875 220.9019622802734 231.9027709960938 225.9525756835938 220.8571166992188 225.9525756835938 L 19.99998474121094 170 C 8.081436157226563 166.4512176513672 3.5906982421875 158.8608856201172 -1.52587890625e-05 150 L -78.22967529296875 -52.95037841796875 C -80.93855285644531 -61.83387756347656 -82.43408203125 -71.32962036132813 -73.2265625 -71.32962036132813 Z" stroke="none" fill="#d90429"/>
        </g>
      </g>
      <g transform="matrix(1, 0, 0, 1, 139, 345)" filter="url(#Path_29)">
        <g id="Path_29-2" data-name="Path 29" transform="translate(399.37 765.03) rotate(-43)" fill="#d90429">
          <path d="M 220.9252319335938 225.4525299072266 L 20.13415145874023 169.5183410644531 C 14.73117733001709 167.9087066650391 10.51548767089844 165.3377990722656 7.250984191894531 161.6601257324219 C 4.030978679656982 158.0325927734375 2.013420343399048 153.6370239257813 0.4645695388317108 149.8150939941406 L -77.7567138671875 -53.11349105834961 C -79.29704284667969 -58.16814422607422 -81.04691314697266 -65.2725830078125 -78.51839447021484 -68.68711853027344 C -77.4508056640625 -70.12879180908203 -75.71981048583984 -70.82962036132813 -73.22651672363281 -70.82962036132813 C -70.69313812255859 -70.82962036132813 -67.38530731201172 -70.07220458984375 -63.39488983154297 -68.57845306396484 C -43.67797470092773 -61.19766235351563 138.9986114501953 -0.1416213810443878 140.8415222167969 0.4742119610309601 L 140.8703155517578 0.4838786125183105 L 140.9001159667969 0.4899202883243561 C 143.2291564941406 0.9646703004837036 145.4140625 1.745420336723328 147.3941497802734 2.810420274734497 C 149.3581085205078 3.866753578186035 151.1777801513672 5.233545303344727 152.8026580810547 6.872878551483154 C 156.0288543701172 10.12783718109131 158.6276550292969 14.59879493713379 160.5268249511719 20.16154479980469 L 160.5305633544922 20.17258644104004 L 160.5348663330078 20.18342018127441 L 235.3670959472656 209.9509735107422 C 235.3556060791016 215.5277252197266 234.3268432617188 219.2666473388672 232.1321563720703 221.7126312255859 C 230.9937286376953 222.9814147949219 229.5450286865234 223.8986663818359 227.7032318115234 224.5168304443359 C 225.8427581787109 225.1412811279297 223.6251525878906 225.4474792480469 220.9252319335938 225.4525299072266 Z" stroke="none"/>
          <path d="M -73.2265625 -70.32962036132813 C -75.55035400390625 -70.32962036132813 -77.14988708496094 -69.69503784179688 -78.11659240722656 -68.38957214355469 C -79.10009765625 -67.06149291992188 -79.47172546386719 -64.94953918457031 -79.22114562988281 -62.11233520507813 C -79.01417541503906 -59.76875305175781 -78.38044738769531 -56.87837219238281 -77.28372192382813 -53.27664184570313 L 0.929962158203125 149.6322784423828 C 2.462600708007813 153.4136199951172 4.456573486328125 157.7588653564453 7.624893188476563 161.3281707763672 C 10.82498168945313 164.9332733154297 14.963623046875 167.4556121826172 20.27674865722656 169.0390167236328 L 220.9928894042969 224.9523315429688 C 223.60693359375 224.9423980712891 225.7511444091797 224.6446228027344 227.5441589355469 224.0427856445313 C 229.3017730712891 223.452880859375 230.6808166503906 222.5814514160156 231.7599792480469 221.3787231445313 C 233.8554077148438 219.0433807373047 234.8442687988281 215.4385986328125 234.8667907714844 210.0453186035156 L 160.0696868896484 20.36683654785156 L 160.0611572265625 20.34516906738281 L 160.0536041259766 20.32308959960938 C 158.1791076660156 14.83250427246094 155.6200256347656 10.42562866210938 152.4475250244141 7.224838256835938 C 150.8575286865234 5.62066650390625 149.0776519775391 4.283584594726563 147.1573181152344 3.250747680664063 C 145.2202301025391 2.208877563476563 143.0814361572266 1.444839477539063 140.8002777099609 0.9798431396484375 L 140.7406921386719 0.96771240234375 L 140.6830291748047 0.948455810546875 C 138.8400268554688 0.332550048828125 -43.84501647949219 -60.72628784179688 -63.57017517089844 -68.11016845703125 C -67.50442504882813 -69.58287048339844 -70.75331115722656 -70.32962036132813 -73.2265625 -70.32962036132813 M -73.2265625 -71.32962036132813 C -70.73617553710938 -71.32962036132813 -67.46391296386719 -70.63551330566406 -63.2196044921875 -69.04670715332031 C -43.28297424316406 -61.58366394042969 140.9999847412109 0 140.9999847412109 0 C 150.5887756347656 1.954544067382813 157.1652374267578 8.76776123046875 160.9999847412109 20 L 235.8671875 209.8562622070313 C 235.8671875 220.9019622802734 231.9027709960938 225.9525756835938 220.8571166992188 225.9525756835938 L 19.99998474121094 170 C 8.081436157226563 166.4512176513672 3.5906982421875 158.8608856201172 -1.52587890625e-05 150 L -78.22967529296875 -52.95037841796875 C -80.93855285644531 -61.83387756347656 -82.43408203125 -71.32962036132813 -73.2265625 -71.32962036132813 Z" stroke="none" fill="#d90429"/>
        </g>
      </g>
      <g transform="matrix(1, 0, 0, 1, 139, 345)" filter="url(#Path_17)">
        <g id="Path_17-2" data-name="Path 17" transform="translate(399.37 1174.03) rotate(-43)" fill="#d90429">
          <path d="M 220.9252319335938 225.4525299072266 L 20.13415145874023 169.5183410644531 C 14.73117733001709 167.9087066650391 10.51548767089844 165.3377990722656 7.250984191894531 161.6601257324219 C 4.030978679656982 158.0325927734375 2.013420343399048 153.6370239257813 0.4645695388317108 149.8150939941406 L -77.7567138671875 -53.11349105834961 C -79.29704284667969 -58.16814422607422 -81.04691314697266 -65.2725830078125 -78.51839447021484 -68.68711853027344 C -77.4508056640625 -70.12879180908203 -75.71981048583984 -70.82962036132813 -73.22651672363281 -70.82962036132813 C -70.69313812255859 -70.82962036132813 -67.38530731201172 -70.07220458984375 -63.39488983154297 -68.57845306396484 C -43.67797470092773 -61.19766235351563 138.9986114501953 -0.1416213810443878 140.8415222167969 0.4742119610309601 L 140.8703155517578 0.4838786125183105 L 140.9001159667969 0.4899202883243561 C 143.2291564941406 0.9646703004837036 145.4140625 1.745420336723328 147.3941497802734 2.810420274734497 C 149.3581085205078 3.866753578186035 151.1777801513672 5.233545303344727 152.8026580810547 6.872878551483154 C 156.0288543701172 10.12783718109131 158.6276550292969 14.59879493713379 160.5268249511719 20.16154479980469 L 160.5305633544922 20.17258644104004 L 160.5348663330078 20.18342018127441 L 235.3670959472656 209.9509735107422 C 235.3556060791016 215.5277252197266 234.3268432617188 219.2666473388672 232.1321563720703 221.7126312255859 C 230.9937286376953 222.9814147949219 229.5450286865234 223.8986663818359 227.7032318115234 224.5168304443359 C 225.8427581787109 225.1412811279297 223.6251525878906 225.4474792480469 220.9252319335938 225.4525299072266 Z" stroke="none"/>
          <path d="M -73.2265625 -70.32962036132813 C -75.55035400390625 -70.32962036132813 -77.14988708496094 -69.69503784179688 -78.11659240722656 -68.38957214355469 C -79.10009765625 -67.06149291992188 -79.47172546386719 -64.94953918457031 -79.22114562988281 -62.11233520507813 C -79.01417541503906 -59.76875305175781 -78.38044738769531 -56.87837219238281 -77.28372192382813 -53.27664184570313 L 0.929962158203125 149.6322784423828 C 2.462600708007813 153.4136199951172 4.456573486328125 157.7588653564453 7.624893188476563 161.3281707763672 C 10.82498168945313 164.9332733154297 14.963623046875 167.4556121826172 20.27674865722656 169.0390167236328 L 220.9928894042969 224.9523315429688 C 223.60693359375 224.9423980712891 225.7511444091797 224.6446228027344 227.5441589355469 224.0427856445313 C 229.3017730712891 223.452880859375 230.6808166503906 222.5814514160156 231.7599792480469 221.3787231445313 C 233.8554077148438 219.0433807373047 234.8442687988281 215.4385986328125 234.8667907714844 210.0453186035156 L 160.0696868896484 20.36683654785156 L 160.0611572265625 20.34516906738281 L 160.0536041259766 20.32308959960938 C 158.1791076660156 14.83250427246094 155.6200256347656 10.42562866210938 152.4475250244141 7.224838256835938 C 150.8575286865234 5.62066650390625 149.0776519775391 4.283584594726563 147.1573181152344 3.250747680664063 C 145.2202301025391 2.208877563476563 143.0814361572266 1.444839477539063 140.8002777099609 0.9798431396484375 L 140.7406921386719 0.96771240234375 L 140.6830291748047 0.948455810546875 C 138.8400268554688 0.332550048828125 -43.84501647949219 -60.72628784179688 -63.57017517089844 -68.11016845703125 C -67.50442504882813 -69.58287048339844 -70.75331115722656 -70.32962036132813 -73.2265625 -70.32962036132813 M -73.2265625 -71.32962036132813 C -70.73617553710938 -71.32962036132813 -67.46391296386719 -70.63551330566406 -63.2196044921875 -69.04670715332031 C -43.28297424316406 -61.58366394042969 140.9999847412109 0 140.9999847412109 0 C 150.5887756347656 1.954544067382813 157.1652374267578 8.76776123046875 160.9999847412109 20 L 235.8671875 209.8562622070313 C 235.8671875 220.9019622802734 231.9027709960938 225.9525756835938 220.8571166992188 225.9525756835938 L 19.99998474121094 170 C 8.081436157226563 166.4512176513672 3.5906982421875 158.8608856201172 -1.52587890625e-05 150 L -78.22967529296875 -52.95037841796875 C -80.93855285644531 -61.83387756347656 -82.43408203125 -71.32962036132813 -73.2265625 -71.32962036132813 Z" stroke="none" fill="#d90429"/>
        </g>
      </g>
      <g transform="matrix(1, 0, 0, 1, 139, 345)" filter="url(#Path_30)">
        <g id="Path_30-2" data-name="Path 30" transform="translate(125.37 1002.03) rotate(-43)" fill="#d90429">
          <path d="M 220.9252319335938 225.4525299072266 L 20.13415145874023 169.5183410644531 C 14.73117733001709 167.9087066650391 10.51548767089844 165.3377990722656 7.250984191894531 161.6601257324219 C 4.030978679656982 158.0325927734375 2.013420343399048 153.6370239257813 0.4645695388317108 149.8150939941406 L -77.7567138671875 -53.11349105834961 C -79.29704284667969 -58.16814422607422 -81.04691314697266 -65.2725830078125 -78.51839447021484 -68.68711853027344 C -77.4508056640625 -70.12879180908203 -75.71981048583984 -70.82962036132813 -73.22651672363281 -70.82962036132813 C -70.69313812255859 -70.82962036132813 -67.38530731201172 -70.07220458984375 -63.39488983154297 -68.57845306396484 C -43.67797470092773 -61.19766235351563 138.9986114501953 -0.1416213810443878 140.8415222167969 0.4742119610309601 L 140.8703155517578 0.4838786125183105 L 140.9001159667969 0.4899202883243561 C 143.2291564941406 0.9646703004837036 145.4140625 1.745420336723328 147.3941497802734 2.810420274734497 C 149.3581085205078 3.866753578186035 151.1777801513672 5.233545303344727 152.8026580810547 6.872878551483154 C 156.0288543701172 10.12783718109131 158.6276550292969 14.59879493713379 160.5268249511719 20.16154479980469 L 160.5305633544922 20.17258644104004 L 160.5348663330078 20.18342018127441 L 235.3670959472656 209.9509735107422 C 235.3556060791016 215.5277252197266 234.3268432617188 219.2666473388672 232.1321563720703 221.7126312255859 C 230.9937286376953 222.9814147949219 229.5450286865234 223.8986663818359 227.7032318115234 224.5168304443359 C 225.8427581787109 225.1412811279297 223.6251525878906 225.4474792480469 220.9252319335938 225.4525299072266 Z" stroke="none"/>
          <path d="M -73.2265625 -70.32962036132813 C -75.55035400390625 -70.32962036132813 -77.14988708496094 -69.69503784179688 -78.11659240722656 -68.38957214355469 C -79.10009765625 -67.06149291992188 -79.47172546386719 -64.94953918457031 -79.22114562988281 -62.11233520507813 C -79.01417541503906 -59.76875305175781 -78.38044738769531 -56.87837219238281 -77.28372192382813 -53.27664184570313 L 0.929962158203125 149.6322784423828 C 2.462600708007813 153.4136199951172 4.456573486328125 157.7588653564453 7.624893188476563 161.3281707763672 C 10.82498168945313 164.9332733154297 14.963623046875 167.4556121826172 20.27674865722656 169.0390167236328 L 220.9928894042969 224.9523315429688 C 223.60693359375 224.9423980712891 225.7511444091797 224.6446228027344 227.5441589355469 224.0427856445313 C 229.3017730712891 223.452880859375 230.6808166503906 222.5814514160156 231.7599792480469 221.3787231445313 C 233.8554077148438 219.0433807373047 234.8442687988281 215.4385986328125 234.8667907714844 210.0453186035156 L 160.0696868896484 20.36683654785156 L 160.0611572265625 20.34516906738281 L 160.0536041259766 20.32308959960938 C 158.1791076660156 14.83250427246094 155.6200256347656 10.42562866210938 152.4475250244141 7.224838256835938 C 150.8575286865234 5.62066650390625 149.0776519775391 4.283584594726563 147.1573181152344 3.250747680664063 C 145.2202301025391 2.208877563476563 143.0814361572266 1.444839477539063 140.8002777099609 0.9798431396484375 L 140.7406921386719 0.96771240234375 L 140.6830291748047 0.948455810546875 C 138.8400268554688 0.332550048828125 -43.84501647949219 -60.72628784179688 -63.57017517089844 -68.11016845703125 C -67.50442504882813 -69.58287048339844 -70.75331115722656 -70.32962036132813 -73.2265625 -70.32962036132813 M -73.2265625 -71.32962036132813 C -70.73617553710938 -71.32962036132813 -67.46391296386719 -70.63551330566406 -63.2196044921875 -69.04670715332031 C -43.28297424316406 -61.58366394042969 140.9999847412109 0 140.9999847412109 0 C 150.5887756347656 1.954544067382813 157.1652374267578 8.76776123046875 160.9999847412109 20 L 235.8671875 209.8562622070313 C 235.8671875 220.9019622802734 231.9027709960938 225.9525756835938 220.8571166992188 225.9525756835938 L 19.99998474121094 170 C 8.081436157226563 166.4512176513672 3.5906982421875 158.8608856201172 -1.52587890625e-05 150 L -78.22967529296875 -52.95037841796875 C -80.93855285644531 -61.83387756347656 -82.43408203125 -71.32962036132813 -73.2265625 -71.32962036132813 Z" stroke="none" fill="#d90429"/>
        </g>
      </g>
      <g transform="matrix(1, 0, 0, 1, 139, 345)" filter="url(#Path_18)">
        <g id="Path_18-2" data-name="Path 18" transform="translate(1230.37 536.03) rotate(-43)" fill="#d90429">
          <path d="M 220.9252319335938 225.4525299072266 L 20.13415145874023 169.5183410644531 C 14.73117733001709 167.9087066650391 10.51548767089844 165.3377990722656 7.250984191894531 161.6601257324219 C 4.030978679656982 158.0325927734375 2.013420343399048 153.6370239257813 0.4645695388317108 149.8150939941406 L -77.7567138671875 -53.11349105834961 C -79.29704284667969 -58.16814422607422 -81.04691314697266 -65.2725830078125 -78.51839447021484 -68.68711853027344 C -77.4508056640625 -70.12879180908203 -75.71981048583984 -70.82962036132813 -73.22651672363281 -70.82962036132813 C -70.69313812255859 -70.82962036132813 -67.38530731201172 -70.07220458984375 -63.39488983154297 -68.57845306396484 C -43.67797470092773 -61.19766235351563 138.9986114501953 -0.1416213810443878 140.8415222167969 0.4742119610309601 L 140.8703155517578 0.4838786125183105 L 140.9001159667969 0.4899202883243561 C 143.2291564941406 0.9646703004837036 145.4140625 1.745420336723328 147.3941497802734 2.810420274734497 C 149.3581085205078 3.866753578186035 151.1777801513672 5.233545303344727 152.8026580810547 6.872878551483154 C 156.0288543701172 10.12783718109131 158.6276550292969 14.59879493713379 160.5268249511719 20.16154479980469 L 160.5305633544922 20.17258644104004 L 160.5348663330078 20.18342018127441 L 235.3670959472656 209.9509735107422 C 235.3556060791016 215.5277252197266 234.3268432617188 219.2666473388672 232.1321563720703 221.7126312255859 C 230.9937286376953 222.9814147949219 229.5450286865234 223.8986663818359 227.7032318115234 224.5168304443359 C 225.8427581787109 225.1412811279297 223.6251525878906 225.4474792480469 220.9252319335938 225.4525299072266 Z" stroke="none"/>
          <path d="M -73.2265625 -70.32962036132813 C -75.55035400390625 -70.32962036132813 -77.14988708496094 -69.69503784179688 -78.11659240722656 -68.38957214355469 C -79.10009765625 -67.06149291992188 -79.47172546386719 -64.94953918457031 -79.22114562988281 -62.11233520507813 C -79.01417541503906 -59.76875305175781 -78.38044738769531 -56.87837219238281 -77.28372192382813 -53.27664184570313 L 0.929962158203125 149.6322784423828 C 2.462600708007813 153.4136199951172 4.456573486328125 157.7588653564453 7.624893188476563 161.3281707763672 C 10.82498168945313 164.9332733154297 14.963623046875 167.4556121826172 20.27674865722656 169.0390167236328 L 220.9928894042969 224.9523315429688 C 223.60693359375 224.9423980712891 225.7511444091797 224.6446228027344 227.5441589355469 224.0427856445313 C 229.3017730712891 223.452880859375 230.6808166503906 222.5814514160156 231.7599792480469 221.3787231445313 C 233.8554077148438 219.0433807373047 234.8442687988281 215.4385986328125 234.8667907714844 210.0453186035156 L 160.0696868896484 20.36683654785156 L 160.0611572265625 20.34516906738281 L 160.0536041259766 20.32308959960938 C 158.1791076660156 14.83250427246094 155.6200256347656 10.42562866210938 152.4475250244141 7.224838256835938 C 150.8575286865234 5.62066650390625 149.0776519775391 4.283584594726563 147.1573181152344 3.250747680664063 C 145.2202301025391 2.208877563476563 143.0814361572266 1.444839477539063 140.8002777099609 0.9798431396484375 L 140.7406921386719 0.96771240234375 L 140.6830291748047 0.948455810546875 C 138.8400268554688 0.332550048828125 -43.84501647949219 -60.72628784179688 -63.57017517089844 -68.11016845703125 C -67.50442504882813 -69.58287048339844 -70.75331115722656 -70.32962036132813 -73.2265625 -70.32962036132813 M -73.2265625 -71.32962036132813 C -70.73617553710938 -71.32962036132813 -67.46391296386719 -70.63551330566406 -63.2196044921875 -69.04670715332031 C -43.28297424316406 -61.58366394042969 140.9999847412109 0 140.9999847412109 0 C 150.5887756347656 1.954544067382813 157.1652374267578 8.76776123046875 160.9999847412109 20 L 235.8671875 209.8562622070313 C 235.8671875 220.9019622802734 231.9027709960938 225.9525756835938 220.8571166992188 225.9525756835938 L 19.99998474121094 170 C 8.081436157226563 166.4512176513672 3.5906982421875 158.8608856201172 -1.52587890625e-05 150 L -78.22967529296875 -52.95037841796875 C -80.93855285644531 -61.83387756347656 -82.43408203125 -71.32962036132813 -73.2265625 -71.32962036132813 Z" stroke="none" fill="#d90429"/>
        </g>
      </g>
      <g transform="matrix(1, 0, 0, 1, 139, 345)" filter="url(#Path_19)">
        <g id="Path_19-2" data-name="Path 19" transform="translate(1498.37 765.03) rotate(-43)" fill="#d90429">
          <path d="M 220.9252319335938 225.4525299072266 L 20.13415145874023 169.5183410644531 C 14.73117733001709 167.9087066650391 10.51548767089844 165.3377990722656 7.250984191894531 161.6601257324219 C 4.030978679656982 158.0325927734375 2.013420343399048 153.6370239257813 0.4645695388317108 149.8150939941406 L -77.7567138671875 -53.11349105834961 C -79.29704284667969 -58.16814422607422 -81.04691314697266 -65.2725830078125 -78.51839447021484 -68.68711853027344 C -77.4508056640625 -70.12879180908203 -75.71981048583984 -70.82962036132813 -73.22651672363281 -70.82962036132813 C -70.69313812255859 -70.82962036132813 -67.38530731201172 -70.07220458984375 -63.39488983154297 -68.57845306396484 C -43.67797470092773 -61.19766235351563 138.9986114501953 -0.1416213810443878 140.8415222167969 0.4742119610309601 L 140.8703155517578 0.4838786125183105 L 140.9001159667969 0.4899202883243561 C 143.2291564941406 0.9646703004837036 145.4140625 1.745420336723328 147.3941497802734 2.810420274734497 C 149.3581085205078 3.866753578186035 151.1777801513672 5.233545303344727 152.8026580810547 6.872878551483154 C 156.0288543701172 10.12783718109131 158.6276550292969 14.59879493713379 160.5268249511719 20.16154479980469 L 160.5305633544922 20.17258644104004 L 160.5348663330078 20.18342018127441 L 235.3670959472656 209.9509735107422 C 235.3556060791016 215.5277252197266 234.3268432617188 219.2666473388672 232.1321563720703 221.7126312255859 C 230.9937286376953 222.9814147949219 229.5450286865234 223.8986663818359 227.7032318115234 224.5168304443359 C 225.8427581787109 225.1412811279297 223.6251525878906 225.4474792480469 220.9252319335938 225.4525299072266 Z" stroke="none"/>
          <path d="M -73.2265625 -70.32962036132813 C -75.55035400390625 -70.32962036132813 -77.14988708496094 -69.69503784179688 -78.11659240722656 -68.38957214355469 C -79.10009765625 -67.06149291992188 -79.47172546386719 -64.94953918457031 -79.22114562988281 -62.11233520507813 C -79.01417541503906 -59.76875305175781 -78.38044738769531 -56.87837219238281 -77.28372192382813 -53.27664184570313 L 0.929962158203125 149.6322784423828 C 2.462600708007813 153.4136199951172 4.456573486328125 157.7588653564453 7.624893188476563 161.3281707763672 C 10.82498168945313 164.9332733154297 14.963623046875 167.4556121826172 20.27674865722656 169.0390167236328 L 220.9928894042969 224.9523315429688 C 223.60693359375 224.9423980712891 225.7511444091797 224.6446228027344 227.5441589355469 224.0427856445313 C 229.3017730712891 223.452880859375 230.6808166503906 222.5814514160156 231.7599792480469 221.3787231445313 C 233.8554077148438 219.0433807373047 234.8442687988281 215.4385986328125 234.8667907714844 210.0453186035156 L 160.0696868896484 20.36683654785156 L 160.0611572265625 20.34516906738281 L 160.0536041259766 20.32308959960938 C 158.1791076660156 14.83250427246094 155.6200256347656 10.42562866210938 152.4475250244141 7.224838256835938 C 150.8575286865234 5.62066650390625 149.0776519775391 4.283584594726563 147.1573181152344 3.250747680664063 C 145.2202301025391 2.208877563476563 143.0814361572266 1.444839477539063 140.8002777099609 0.9798431396484375 L 140.7406921386719 0.96771240234375 L 140.6830291748047 0.948455810546875 C 138.8400268554688 0.332550048828125 -43.84501647949219 -60.72628784179688 -63.57017517089844 -68.11016845703125 C -67.50442504882813 -69.58287048339844 -70.75331115722656 -70.32962036132813 -73.2265625 -70.32962036132813 M -73.2265625 -71.32962036132813 C -70.73617553710938 -71.32962036132813 -67.46391296386719 -70.63551330566406 -63.2196044921875 -69.04670715332031 C -43.28297424316406 -61.58366394042969 140.9999847412109 0 140.9999847412109 0 C 150.5887756347656 1.954544067382813 157.1652374267578 8.76776123046875 160.9999847412109 20 L 235.8671875 209.8562622070313 C 235.8671875 220.9019622802734 231.9027709960938 225.9525756835938 220.8571166992188 225.9525756835938 L 19.99998474121094 170 C 8.081436157226563 166.4512176513672 3.5906982421875 158.8608856201172 -1.52587890625e-05 150 L -78.22967529296875 -52.95037841796875 C -80.93855285644531 -61.83387756347656 -82.43408203125 -71.32962036132813 -73.2265625 -71.32962036132813 Z" stroke="none" fill="#d90429"/>
        </g>
      </g>
      <g transform="matrix(1, 0, 0, 1, 139, 345)" filter="url(#Path_20)">
        <g id="Path_20-2" data-name="Path 20" transform="translate(1230.37 1002.03) rotate(-43)" fill="#d90429">
          <path d="M 220.9252319335938 225.4525299072266 L 20.13415145874023 169.5183410644531 C 14.73117733001709 167.9087066650391 10.51548767089844 165.3377990722656 7.250984191894531 161.6601257324219 C 4.030978679656982 158.0325927734375 2.013420343399048 153.6370239257813 0.4645695388317108 149.8150939941406 L -77.7567138671875 -53.11349105834961 C -79.29704284667969 -58.16814422607422 -81.04691314697266 -65.2725830078125 -78.51839447021484 -68.68711853027344 C -77.4508056640625 -70.12879180908203 -75.71981048583984 -70.82962036132813 -73.22651672363281 -70.82962036132813 C -70.69313812255859 -70.82962036132813 -67.38530731201172 -70.07220458984375 -63.39488983154297 -68.57845306396484 C -43.67797470092773 -61.19766235351563 138.9986114501953 -0.1416213810443878 140.8415222167969 0.4742119610309601 L 140.8703155517578 0.4838786125183105 L 140.9001159667969 0.4899202883243561 C 143.2291564941406 0.9646703004837036 145.4140625 1.745420336723328 147.3941497802734 2.810420274734497 C 149.3581085205078 3.866753578186035 151.1777801513672 5.233545303344727 152.8026580810547 6.872878551483154 C 156.0288543701172 10.12783718109131 158.6276550292969 14.59879493713379 160.5268249511719 20.16154479980469 L 160.5305633544922 20.17258644104004 L 160.5348663330078 20.18342018127441 L 235.3670959472656 209.9509735107422 C 235.3556060791016 215.5277252197266 234.3268432617188 219.2666473388672 232.1321563720703 221.7126312255859 C 230.9937286376953 222.9814147949219 229.5450286865234 223.8986663818359 227.7032318115234 224.5168304443359 C 225.8427581787109 225.1412811279297 223.6251525878906 225.4474792480469 220.9252319335938 225.4525299072266 Z" stroke="none"/>
          <path d="M -73.2265625 -70.32962036132813 C -75.55035400390625 -70.32962036132813 -77.14988708496094 -69.69503784179688 -78.11659240722656 -68.38957214355469 C -79.10009765625 -67.06149291992188 -79.47172546386719 -64.94953918457031 -79.22114562988281 -62.11233520507813 C -79.01417541503906 -59.76875305175781 -78.38044738769531 -56.87837219238281 -77.28372192382813 -53.27664184570313 L 0.929962158203125 149.6322784423828 C 2.462600708007813 153.4136199951172 4.456573486328125 157.7588653564453 7.624893188476563 161.3281707763672 C 10.82498168945313 164.9332733154297 14.963623046875 167.4556121826172 20.27674865722656 169.0390167236328 L 220.9928894042969 224.9523315429688 C 223.60693359375 224.9423980712891 225.7511444091797 224.6446228027344 227.5441589355469 224.0427856445313 C 229.3017730712891 223.452880859375 230.6808166503906 222.5814514160156 231.7599792480469 221.3787231445313 C 233.8554077148438 219.0433807373047 234.8442687988281 215.4385986328125 234.8667907714844 210.0453186035156 L 160.0696868896484 20.36683654785156 L 160.0611572265625 20.34516906738281 L 160.0536041259766 20.32308959960938 C 158.1791076660156 14.83250427246094 155.6200256347656 10.42562866210938 152.4475250244141 7.224838256835938 C 150.8575286865234 5.62066650390625 149.0776519775391 4.283584594726563 147.1573181152344 3.250747680664063 C 145.2202301025391 2.208877563476563 143.0814361572266 1.444839477539063 140.8002777099609 0.9798431396484375 L 140.7406921386719 0.96771240234375 L 140.6830291748047 0.948455810546875 C 138.8400268554688 0.332550048828125 -43.84501647949219 -60.72628784179688 -63.57017517089844 -68.11016845703125 C -67.50442504882813 -69.58287048339844 -70.75331115722656 -70.32962036132813 -73.2265625 -70.32962036132813 M -73.2265625 -71.32962036132813 C -70.73617553710938 -71.32962036132813 -67.46391296386719 -70.63551330566406 -63.2196044921875 -69.04670715332031 C -43.28297424316406 -61.58366394042969 140.9999847412109 0 140.9999847412109 0 C 150.5887756347656 1.954544067382813 157.1652374267578 8.76776123046875 160.9999847412109 20 L 235.8671875 209.8562622070313 C 235.8671875 220.9019622802734 231.9027709960938 225.9525756835938 220.8571166992188 225.9525756835938 L 19.99998474121094 170 C 8.081436157226563 166.4512176513672 3.5906982421875 158.8608856201172 -1.52587890625e-05 150 L -78.22967529296875 -52.95037841796875 C -80.93855285644531 -61.83387756347656 -82.43408203125 -71.32962036132813 -73.2265625 -71.32962036132813 Z" stroke="none" fill="#d90429"/>
        </g>
      </g>
      <g transform="matrix(1, 0, 0, 1, 139, 345)" filter="url(#Path_21)">
        <g id="Path_21-2" data-name="Path 21" transform="translate(956.37 1174.03) rotate(-43)" fill="#d90429">
          <path d="M 220.9252319335938 225.4525299072266 L 20.13415145874023 169.5183410644531 C 14.73117733001709 167.9087066650391 10.51548767089844 165.3377990722656 7.250984191894531 161.6601257324219 C 4.030978679656982 158.0325927734375 2.013420343399048 153.6370239257813 0.4645695388317108 149.8150939941406 L -77.7567138671875 -53.11349105834961 C -79.29704284667969 -58.16814422607422 -81.04691314697266 -65.2725830078125 -78.51839447021484 -68.68711853027344 C -77.4508056640625 -70.12879180908203 -75.71981048583984 -70.82962036132813 -73.22651672363281 -70.82962036132813 C -70.69313812255859 -70.82962036132813 -67.38530731201172 -70.07220458984375 -63.39488983154297 -68.57845306396484 C -43.67797470092773 -61.19766235351563 138.9986114501953 -0.1416213810443878 140.8415222167969 0.4742119610309601 L 140.8703155517578 0.4838786125183105 L 140.9001159667969 0.4899202883243561 C 143.2291564941406 0.9646703004837036 145.4140625 1.745420336723328 147.3941497802734 2.810420274734497 C 149.3581085205078 3.866753578186035 151.1777801513672 5.233545303344727 152.8026580810547 6.872878551483154 C 156.0288543701172 10.12783718109131 158.6276550292969 14.59879493713379 160.5268249511719 20.16154479980469 L 160.5305633544922 20.17258644104004 L 160.5348663330078 20.18342018127441 L 235.3670959472656 209.9509735107422 C 235.3556060791016 215.5277252197266 234.3268432617188 219.2666473388672 232.1321563720703 221.7126312255859 C 230.9937286376953 222.9814147949219 229.5450286865234 223.8986663818359 227.7032318115234 224.5168304443359 C 225.8427581787109 225.1412811279297 223.6251525878906 225.4474792480469 220.9252319335938 225.4525299072266 Z" stroke="none"/>
          <path d="M -73.2265625 -70.32962036132813 C -75.55035400390625 -70.32962036132813 -77.14988708496094 -69.69503784179688 -78.11659240722656 -68.38957214355469 C -79.10009765625 -67.06149291992188 -79.47172546386719 -64.94953918457031 -79.22114562988281 -62.11233520507813 C -79.01417541503906 -59.76875305175781 -78.38044738769531 -56.87837219238281 -77.28372192382813 -53.27664184570313 L 0.929962158203125 149.6322784423828 C 2.462600708007813 153.4136199951172 4.456573486328125 157.7588653564453 7.624893188476563 161.3281707763672 C 10.82498168945313 164.9332733154297 14.963623046875 167.4556121826172 20.27674865722656 169.0390167236328 L 220.9928894042969 224.9523315429688 C 223.60693359375 224.9423980712891 225.7511444091797 224.6446228027344 227.5441589355469 224.0427856445313 C 229.3017730712891 223.452880859375 230.6808166503906 222.5814514160156 231.7599792480469 221.3787231445313 C 233.8554077148438 219.0433807373047 234.8442687988281 215.4385986328125 234.8667907714844 210.0453186035156 L 160.0696868896484 20.36683654785156 L 160.0611572265625 20.34516906738281 L 160.0536041259766 20.32308959960938 C 158.1791076660156 14.83250427246094 155.6200256347656 10.42562866210938 152.4475250244141 7.224838256835938 C 150.8575286865234 5.62066650390625 149.0776519775391 4.283584594726563 147.1573181152344 3.250747680664063 C 145.2202301025391 2.208877563476563 143.0814361572266 1.444839477539063 140.8002777099609 0.9798431396484375 L 140.7406921386719 0.96771240234375 L 140.6830291748047 0.948455810546875 C 138.8400268554688 0.332550048828125 -43.84501647949219 -60.72628784179688 -63.57017517089844 -68.11016845703125 C -67.50442504882813 -69.58287048339844 -70.75331115722656 -70.32962036132813 -73.2265625 -70.32962036132813 M -73.2265625 -71.32962036132813 C -70.73617553710938 -71.32962036132813 -67.46391296386719 -70.63551330566406 -63.2196044921875 -69.04670715332031 C -43.28297424316406 -61.58366394042969 140.9999847412109 0 140.9999847412109 0 C 150.5887756347656 1.954544067382813 157.1652374267578 8.76776123046875 160.9999847412109 20 L 235.8671875 209.8562622070313 C 235.8671875 220.9019622802734 231.9027709960938 225.9525756835938 220.8571166992188 225.9525756835938 L 19.99998474121094 170 C 8.081436157226563 166.4512176513672 3.5906982421875 158.8608856201172 -1.52587890625e-05 150 L -78.22967529296875 -52.95037841796875 C -80.93855285644531 -61.83387756347656 -82.43408203125 -71.32962036132813 -73.2265625 -71.32962036132813 Z" stroke="none" fill="#d90429"/>
        </g>
      </g>
      <g transform="matrix(1, 0, 0, 1, 139, 345)" filter="url(#Path_22)">
        <g id="Path_22-2" data-name="Path 22" transform="translate(676.37 1322.03) rotate(-43)" fill="#d90429">
          <path d="M 220.9252319335938 225.4525299072266 L 20.13415145874023 169.5183410644531 C 14.73117733001709 167.9087066650391 10.51548767089844 165.3377990722656 7.250984191894531 161.6601257324219 C 4.030978679656982 158.0325927734375 2.013420343399048 153.6370239257813 0.4645695388317108 149.8150939941406 L -77.7567138671875 -53.11349105834961 C -79.29704284667969 -58.16814422607422 -81.04691314697266 -65.2725830078125 -78.51839447021484 -68.68711853027344 C -77.4508056640625 -70.12879180908203 -75.71981048583984 -70.82962036132813 -73.22651672363281 -70.82962036132813 C -70.69313812255859 -70.82962036132813 -67.38530731201172 -70.07220458984375 -63.39488983154297 -68.57845306396484 C -43.67797470092773 -61.19766235351563 138.9986114501953 -0.1416213810443878 140.8415222167969 0.4742119610309601 L 140.8703155517578 0.4838786125183105 L 140.9001159667969 0.4899202883243561 C 143.2291564941406 0.9646703004837036 145.4140625 1.745420336723328 147.3941497802734 2.810420274734497 C 149.3581085205078 3.866753578186035 151.1777801513672 5.233545303344727 152.8026580810547 6.872878551483154 C 156.0288543701172 10.12783718109131 158.6276550292969 14.59879493713379 160.5268249511719 20.16154479980469 L 160.5305633544922 20.17258644104004 L 160.5348663330078 20.18342018127441 L 235.3670959472656 209.9509735107422 C 235.3556060791016 215.5277252197266 234.3268432617188 219.2666473388672 232.1321563720703 221.7126312255859 C 230.9937286376953 222.9814147949219 229.5450286865234 223.8986663818359 227.7032318115234 224.5168304443359 C 225.8427581787109 225.1412811279297 223.6251525878906 225.4474792480469 220.9252319335938 225.4525299072266 Z" stroke="none"/>
          <path d="M -73.2265625 -70.32962036132813 C -75.55035400390625 -70.32962036132813 -77.14988708496094 -69.69503784179688 -78.11659240722656 -68.38957214355469 C -79.10009765625 -67.06149291992188 -79.47172546386719 -64.94953918457031 -79.22114562988281 -62.11233520507813 C -79.01417541503906 -59.76875305175781 -78.38044738769531 -56.87837219238281 -77.28372192382813 -53.27664184570313 L 0.929962158203125 149.6322784423828 C 2.462600708007813 153.4136199951172 4.456573486328125 157.7588653564453 7.624893188476563 161.3281707763672 C 10.82498168945313 164.9332733154297 14.963623046875 167.4556121826172 20.27674865722656 169.0390167236328 L 220.9928894042969 224.9523315429688 C 223.60693359375 224.9423980712891 225.7511444091797 224.6446228027344 227.5441589355469 224.0427856445313 C 229.3017730712891 223.452880859375 230.6808166503906 222.5814514160156 231.7599792480469 221.3787231445313 C 233.8554077148438 219.0433807373047 234.8442687988281 215.4385986328125 234.8667907714844 210.0453186035156 L 160.0696868896484 20.36683654785156 L 160.0611572265625 20.34516906738281 L 160.0536041259766 20.32308959960938 C 158.1791076660156 14.83250427246094 155.6200256347656 10.42562866210938 152.4475250244141 7.224838256835938 C 150.8575286865234 5.62066650390625 149.0776519775391 4.283584594726563 147.1573181152344 3.250747680664063 C 145.2202301025391 2.208877563476563 143.0814361572266 1.444839477539063 140.8002777099609 0.9798431396484375 L 140.7406921386719 0.96771240234375 L 140.6830291748047 0.948455810546875 C 138.8400268554688 0.332550048828125 -43.84501647949219 -60.72628784179688 -63.57017517089844 -68.11016845703125 C -67.50442504882813 -69.58287048339844 -70.75331115722656 -70.32962036132813 -73.2265625 -70.32962036132813 M -73.2265625 -71.32962036132813 C -70.73617553710938 -71.32962036132813 -67.46391296386719 -70.63551330566406 -63.2196044921875 -69.04670715332031 C -43.28297424316406 -61.58366394042969 140.9999847412109 0 140.9999847412109 0 C 150.5887756347656 1.954544067382813 157.1652374267578 8.76776123046875 160.9999847412109 20 L 235.8671875 209.8562622070313 C 235.8671875 220.9019622802734 231.9027709960938 225.9525756835938 220.8571166992188 225.9525756835938 L 19.99998474121094 170 C 8.081436157226563 166.4512176513672 3.5906982421875 158.8608856201172 -1.52587890625e-05 150 L -78.22967529296875 -52.95037841796875 C -80.93855285644531 -61.83387756347656 -82.43408203125 -71.32962036132813 -73.2265625 -71.32962036132813 Z" stroke="none" fill="#d90429"/>
        </g>
      </g>
      <g transform="matrix(1, 0, 0, 1, 139, 345)" filter="url(#Path_23)">
        <g id="Path_23-2" data-name="Path 23" transform="translate(1498.37 1174.03) rotate(-43)" fill="#d90429">
          <path d="M 220.9252319335938 225.4525299072266 L 20.13415145874023 169.5183410644531 C 14.73117733001709 167.9087066650391 10.51548767089844 165.3377990722656 7.250984191894531 161.6601257324219 C 4.030978679656982 158.0325927734375 2.013420343399048 153.6370239257813 0.4645695388317108 149.8150939941406 L -77.7567138671875 -53.11349105834961 C -79.29704284667969 -58.16814422607422 -81.04691314697266 -65.2725830078125 -78.51839447021484 -68.68711853027344 C -77.4508056640625 -70.12879180908203 -75.71981048583984 -70.82962036132813 -73.22651672363281 -70.82962036132813 C -70.69313812255859 -70.82962036132813 -67.38530731201172 -70.07220458984375 -63.39488983154297 -68.57845306396484 C -43.67797470092773 -61.19766235351563 138.9986114501953 -0.1416213810443878 140.8415222167969 0.4742119610309601 L 140.8703155517578 0.4838786125183105 L 140.9001159667969 0.4899202883243561 C 143.2291564941406 0.9646703004837036 145.4140625 1.745420336723328 147.3941497802734 2.810420274734497 C 149.3581085205078 3.866753578186035 151.1777801513672 5.233545303344727 152.8026580810547 6.872878551483154 C 156.0288543701172 10.12783718109131 158.6276550292969 14.59879493713379 160.5268249511719 20.16154479980469 L 160.5305633544922 20.17258644104004 L 160.5348663330078 20.18342018127441 L 235.3670959472656 209.9509735107422 C 235.3556060791016 215.5277252197266 234.3268432617188 219.2666473388672 232.1321563720703 221.7126312255859 C 230.9937286376953 222.9814147949219 229.5450286865234 223.8986663818359 227.7032318115234 224.5168304443359 C 225.8427581787109 225.1412811279297 223.6251525878906 225.4474792480469 220.9252319335938 225.4525299072266 Z" stroke="none"/>
          <path d="M -73.2265625 -70.32962036132813 C -75.55035400390625 -70.32962036132813 -77.14988708496094 -69.69503784179688 -78.11659240722656 -68.38957214355469 C -79.10009765625 -67.06149291992188 -79.47172546386719 -64.94953918457031 -79.22114562988281 -62.11233520507813 C -79.01417541503906 -59.76875305175781 -78.38044738769531 -56.87837219238281 -77.28372192382813 -53.27664184570313 L 0.929962158203125 149.6322784423828 C 2.462600708007813 153.4136199951172 4.456573486328125 157.7588653564453 7.624893188476563 161.3281707763672 C 10.82498168945313 164.9332733154297 14.963623046875 167.4556121826172 20.27674865722656 169.0390167236328 L 220.9928894042969 224.9523315429688 C 223.60693359375 224.9423980712891 225.7511444091797 224.6446228027344 227.5441589355469 224.0427856445313 C 229.3017730712891 223.452880859375 230.6808166503906 222.5814514160156 231.7599792480469 221.3787231445313 C 233.8554077148438 219.0433807373047 234.8442687988281 215.4385986328125 234.8667907714844 210.0453186035156 L 160.0696868896484 20.36683654785156 L 160.0611572265625 20.34516906738281 L 160.0536041259766 20.32308959960938 C 158.1791076660156 14.83250427246094 155.6200256347656 10.42562866210938 152.4475250244141 7.224838256835938 C 150.8575286865234 5.62066650390625 149.0776519775391 4.283584594726563 147.1573181152344 3.250747680664063 C 145.2202301025391 2.208877563476563 143.0814361572266 1.444839477539063 140.8002777099609 0.9798431396484375 L 140.7406921386719 0.96771240234375 L 140.6830291748047 0.948455810546875 C 138.8400268554688 0.332550048828125 -43.84501647949219 -60.72628784179688 -63.57017517089844 -68.11016845703125 C -67.50442504882813 -69.58287048339844 -70.75331115722656 -70.32962036132813 -73.2265625 -70.32962036132813 M -73.2265625 -71.32962036132813 C -70.73617553710938 -71.32962036132813 -67.46391296386719 -70.63551330566406 -63.2196044921875 -69.04670715332031 C -43.28297424316406 -61.58366394042969 140.9999847412109 0 140.9999847412109 0 C 150.5887756347656 1.954544067382813 157.1652374267578 8.76776123046875 160.9999847412109 20 L 235.8671875 209.8562622070313 C 235.8671875 220.9019622802734 231.9027709960938 225.9525756835938 220.8571166992188 225.9525756835938 L 19.99998474121094 170 C 8.081436157226563 166.4512176513672 3.5906982421875 158.8608856201172 -1.52587890625e-05 150 L -78.22967529296875 -52.95037841796875 C -80.93855285644531 -61.83387756347656 -82.43408203125 -71.32962036132813 -73.2265625 -71.32962036132813 Z" stroke="none" fill="#d90429"/>
        </g>
      </g>
      <g transform="matrix(1, 0, 0, 1, 139, 345)" filter="url(#Path_24)">
        <g id="Path_24-2" data-name="Path 24" transform="translate(1230.37 1322.03) rotate(-43)" fill="#d90429">
          <path d="M 220.9252319335938 225.4525299072266 L 20.13415145874023 169.5183410644531 C 14.73117733001709 167.9087066650391 10.51548767089844 165.3377990722656 7.250984191894531 161.6601257324219 C 4.030978679656982 158.0325927734375 2.013420343399048 153.6370239257813 0.4645695388317108 149.8150939941406 L -77.7567138671875 -53.11349105834961 C -79.29704284667969 -58.16814422607422 -81.04691314697266 -65.2725830078125 -78.51839447021484 -68.68711853027344 C -77.4508056640625 -70.12879180908203 -75.71981048583984 -70.82962036132813 -73.22651672363281 -70.82962036132813 C -70.69313812255859 -70.82962036132813 -67.38530731201172 -70.07220458984375 -63.39488983154297 -68.57845306396484 C -43.67797470092773 -61.19766235351563 138.9986114501953 -0.1416213810443878 140.8415222167969 0.4742119610309601 L 140.8703155517578 0.4838786125183105 L 140.9001159667969 0.4899202883243561 C 143.2291564941406 0.9646703004837036 145.4140625 1.745420336723328 147.3941497802734 2.810420274734497 C 149.3581085205078 3.866753578186035 151.1777801513672 5.233545303344727 152.8026580810547 6.872878551483154 C 156.0288543701172 10.12783718109131 158.6276550292969 14.59879493713379 160.5268249511719 20.16154479980469 L 160.5305633544922 20.17258644104004 L 160.5348663330078 20.18342018127441 L 235.3670959472656 209.9509735107422 C 235.3556060791016 215.5277252197266 234.3268432617188 219.2666473388672 232.1321563720703 221.7126312255859 C 230.9937286376953 222.9814147949219 229.5450286865234 223.8986663818359 227.7032318115234 224.5168304443359 C 225.8427581787109 225.1412811279297 223.6251525878906 225.4474792480469 220.9252319335938 225.4525299072266 Z" stroke="none"/>
          <path d="M -73.2265625 -70.32962036132813 C -75.55035400390625 -70.32962036132813 -77.14988708496094 -69.69503784179688 -78.11659240722656 -68.38957214355469 C -79.10009765625 -67.06149291992188 -79.47172546386719 -64.94953918457031 -79.22114562988281 -62.11233520507813 C -79.01417541503906 -59.76875305175781 -78.38044738769531 -56.87837219238281 -77.28372192382813 -53.27664184570313 L 0.929962158203125 149.6322784423828 C 2.462600708007813 153.4136199951172 4.456573486328125 157.7588653564453 7.624893188476563 161.3281707763672 C 10.82498168945313 164.9332733154297 14.963623046875 167.4556121826172 20.27674865722656 169.0390167236328 L 220.9928894042969 224.9523315429688 C 223.60693359375 224.9423980712891 225.7511444091797 224.6446228027344 227.5441589355469 224.0427856445313 C 229.3017730712891 223.452880859375 230.6808166503906 222.5814514160156 231.7599792480469 221.3787231445313 C 233.8554077148438 219.0433807373047 234.8442687988281 215.4385986328125 234.8667907714844 210.0453186035156 L 160.0696868896484 20.36683654785156 L 160.0611572265625 20.34516906738281 L 160.0536041259766 20.32308959960938 C 158.1791076660156 14.83250427246094 155.6200256347656 10.42562866210938 152.4475250244141 7.224838256835938 C 150.8575286865234 5.62066650390625 149.0776519775391 4.283584594726563 147.1573181152344 3.250747680664063 C 145.2202301025391 2.208877563476563 143.0814361572266 1.444839477539063 140.8002777099609 0.9798431396484375 L 140.7406921386719 0.96771240234375 L 140.6830291748047 0.948455810546875 C 138.8400268554688 0.332550048828125 -43.84501647949219 -60.72628784179688 -63.57017517089844 -68.11016845703125 C -67.50442504882813 -69.58287048339844 -70.75331115722656 -70.32962036132813 -73.2265625 -70.32962036132813 M -73.2265625 -71.32962036132813 C -70.73617553710938 -71.32962036132813 -67.46391296386719 -70.63551330566406 -63.2196044921875 -69.04670715332031 C -43.28297424316406 -61.58366394042969 140.9999847412109 0 140.9999847412109 0 C 150.5887756347656 1.954544067382813 157.1652374267578 8.76776123046875 160.9999847412109 20 L 235.8671875 209.8562622070313 C 235.8671875 220.9019622802734 231.9027709960938 225.9525756835938 220.8571166992188 225.9525756835938 L 19.99998474121094 170 C 8.081436157226563 166.4512176513672 3.5906982421875 158.8608856201172 -1.52587890625e-05 150 L -78.22967529296875 -52.95037841796875 C -80.93855285644531 -61.83387756347656 -82.43408203125 -71.32962036132813 -73.2265625 -71.32962036132813 Z" stroke="none" fill="#d90429"/>
        </g>
      </g>
      <g transform="matrix(1, 0, 0, 1, 139, 345)" filter="url(#Path_25)">
        <g id="Path_25-2" data-name="Path 25" transform="translate(956.37 1461.03) rotate(-43)" fill="#d90429">
          <path d="M 220.9252319335938 225.4525299072266 L 20.13415145874023 169.5183410644531 C 14.73117733001709 167.9087066650391 10.51548767089844 165.3377990722656 7.250984191894531 161.6601257324219 C 4.030978679656982 158.0325927734375 2.013420343399048 153.6370239257813 0.4645695388317108 149.8150939941406 L -77.7567138671875 -53.11349105834961 C -79.29704284667969 -58.16814422607422 -81.04691314697266 -65.2725830078125 -78.51839447021484 -68.68711853027344 C -77.4508056640625 -70.12879180908203 -75.71981048583984 -70.82962036132813 -73.22651672363281 -70.82962036132813 C -70.69313812255859 -70.82962036132813 -67.38530731201172 -70.07220458984375 -63.39488983154297 -68.57845306396484 C -43.67797470092773 -61.19766235351563 138.9986114501953 -0.1416213810443878 140.8415222167969 0.4742119610309601 L 140.8703155517578 0.4838786125183105 L 140.9001159667969 0.4899202883243561 C 143.2291564941406 0.9646703004837036 145.4140625 1.745420336723328 147.3941497802734 2.810420274734497 C 149.3581085205078 3.866753578186035 151.1777801513672 5.233545303344727 152.8026580810547 6.872878551483154 C 156.0288543701172 10.12783718109131 158.6276550292969 14.59879493713379 160.5268249511719 20.16154479980469 L 160.5305633544922 20.17258644104004 L 160.5348663330078 20.18342018127441 L 235.3670959472656 209.9509735107422 C 235.3556060791016 215.5277252197266 234.3268432617188 219.2666473388672 232.1321563720703 221.7126312255859 C 230.9937286376953 222.9814147949219 229.5450286865234 223.8986663818359 227.7032318115234 224.5168304443359 C 225.8427581787109 225.1412811279297 223.6251525878906 225.4474792480469 220.9252319335938 225.4525299072266 Z" stroke="none"/>
          <path d="M -73.2265625 -70.32962036132813 C -75.55035400390625 -70.32962036132813 -77.14988708496094 -69.69503784179688 -78.11659240722656 -68.38957214355469 C -79.10009765625 -67.06149291992188 -79.47172546386719 -64.94953918457031 -79.22114562988281 -62.11233520507813 C -79.01417541503906 -59.76875305175781 -78.38044738769531 -56.87837219238281 -77.28372192382813 -53.27664184570313 L 0.929962158203125 149.6322784423828 C 2.462600708007813 153.4136199951172 4.456573486328125 157.7588653564453 7.624893188476563 161.3281707763672 C 10.82498168945313 164.9332733154297 14.963623046875 167.4556121826172 20.27674865722656 169.0390167236328 L 220.9928894042969 224.9523315429688 C 223.60693359375 224.9423980712891 225.7511444091797 224.6446228027344 227.5441589355469 224.0427856445313 C 229.3017730712891 223.452880859375 230.6808166503906 222.5814514160156 231.7599792480469 221.3787231445313 C 233.8554077148438 219.0433807373047 234.8442687988281 215.4385986328125 234.8667907714844 210.0453186035156 L 160.0696868896484 20.36683654785156 L 160.0611572265625 20.34516906738281 L 160.0536041259766 20.32308959960938 C 158.1791076660156 14.83250427246094 155.6200256347656 10.42562866210938 152.4475250244141 7.224838256835938 C 150.8575286865234 5.62066650390625 149.0776519775391 4.283584594726563 147.1573181152344 3.250747680664063 C 145.2202301025391 2.208877563476563 143.0814361572266 1.444839477539063 140.8002777099609 0.9798431396484375 L 140.7406921386719 0.96771240234375 L 140.6830291748047 0.948455810546875 C 138.8400268554688 0.332550048828125 -43.84501647949219 -60.72628784179688 -63.57017517089844 -68.11016845703125 C -67.50442504882813 -69.58287048339844 -70.75331115722656 -70.32962036132813 -73.2265625 -70.32962036132813 M -73.2265625 -71.32962036132813 C -70.73617553710938 -71.32962036132813 -67.46391296386719 -70.63551330566406 -63.2196044921875 -69.04670715332031 C -43.28297424316406 -61.58366394042969 140.9999847412109 0 140.9999847412109 0 C 150.5887756347656 1.954544067382813 157.1652374267578 8.76776123046875 160.9999847412109 20 L 235.8671875 209.8562622070313 C 235.8671875 220.9019622802734 231.9027709960938 225.9525756835938 220.8571166992188 225.9525756835938 L 19.99998474121094 170 C 8.081436157226563 166.4512176513672 3.5906982421875 158.8608856201172 -1.52587890625e-05 150 L -78.22967529296875 -52.95037841796875 C -80.93855285644531 -61.83387756347656 -82.43408203125 -71.32962036132813 -73.2265625 -71.32962036132813 Z" stroke="none" fill="#d90429"/>
        </g>
      </g>
      <g transform="matrix(1, 0, 0, 1, 139, 345)" filter="url(#Path_26)">
        <g id="Path_26-2" data-name="Path 26" transform="translate(1778.37 1002.03) rotate(-43)" fill="#d90429">
          <path d="M 220.9252319335938 225.4525299072266 L 20.13415145874023 169.5183410644531 C 14.73117733001709 167.9087066650391 10.51548767089844 165.3377990722656 7.250984191894531 161.6601257324219 C 4.030978679656982 158.0325927734375 2.013420343399048 153.6370239257813 0.4645695388317108 149.8150939941406 L -77.7567138671875 -53.11349105834961 C -79.29704284667969 -58.16814422607422 -81.04691314697266 -65.2725830078125 -78.51839447021484 -68.68711853027344 C -77.4508056640625 -70.12879180908203 -75.71981048583984 -70.82962036132813 -73.22651672363281 -70.82962036132813 C -70.69313812255859 -70.82962036132813 -67.38530731201172 -70.07220458984375 -63.39488983154297 -68.57845306396484 C -43.67797470092773 -61.19766235351563 138.9986114501953 -0.1416213810443878 140.8415222167969 0.4742119610309601 L 140.8703155517578 0.4838786125183105 L 140.9001159667969 0.4899202883243561 C 143.2291564941406 0.9646703004837036 145.4140625 1.745420336723328 147.3941497802734 2.810420274734497 C 149.3581085205078 3.866753578186035 151.1777801513672 5.233545303344727 152.8026580810547 6.872878551483154 C 156.0288543701172 10.12783718109131 158.6276550292969 14.59879493713379 160.5268249511719 20.16154479980469 L 160.5305633544922 20.17258644104004 L 160.5348663330078 20.18342018127441 L 235.3670959472656 209.9509735107422 C 235.3556060791016 215.5277252197266 234.3268432617188 219.2666473388672 232.1321563720703 221.7126312255859 C 230.9937286376953 222.9814147949219 229.5450286865234 223.8986663818359 227.7032318115234 224.5168304443359 C 225.8427581787109 225.1412811279297 223.6251525878906 225.4474792480469 220.9252319335938 225.4525299072266 Z" stroke="none"/>
          <path d="M -73.2265625 -70.32962036132813 C -75.55035400390625 -70.32962036132813 -77.14988708496094 -69.69503784179688 -78.11659240722656 -68.38957214355469 C -79.10009765625 -67.06149291992188 -79.47172546386719 -64.94953918457031 -79.22114562988281 -62.11233520507813 C -79.01417541503906 -59.76875305175781 -78.38044738769531 -56.87837219238281 -77.28372192382813 -53.27664184570313 L 0.929962158203125 149.6322784423828 C 2.462600708007813 153.4136199951172 4.456573486328125 157.7588653564453 7.624893188476563 161.3281707763672 C 10.82498168945313 164.9332733154297 14.963623046875 167.4556121826172 20.27674865722656 169.0390167236328 L 220.9928894042969 224.9523315429688 C 223.60693359375 224.9423980712891 225.7511444091797 224.6446228027344 227.5441589355469 224.0427856445313 C 229.3017730712891 223.452880859375 230.6808166503906 222.5814514160156 231.7599792480469 221.3787231445313 C 233.8554077148438 219.0433807373047 234.8442687988281 215.4385986328125 234.8667907714844 210.0453186035156 L 160.0696868896484 20.36683654785156 L 160.0611572265625 20.34516906738281 L 160.0536041259766 20.32308959960938 C 158.1791076660156 14.83250427246094 155.6200256347656 10.42562866210938 152.4475250244141 7.224838256835938 C 150.8575286865234 5.62066650390625 149.0776519775391 4.283584594726563 147.1573181152344 3.250747680664063 C 145.2202301025391 2.208877563476563 143.0814361572266 1.444839477539063 140.8002777099609 0.9798431396484375 L 140.7406921386719 0.96771240234375 L 140.6830291748047 0.948455810546875 C 138.8400268554688 0.332550048828125 -43.84501647949219 -60.72628784179688 -63.57017517089844 -68.11016845703125 C -67.50442504882813 -69.58287048339844 -70.75331115722656 -70.32962036132813 -73.2265625 -70.32962036132813 M -73.2265625 -71.32962036132813 C -70.73617553710938 -71.32962036132813 -67.46391296386719 -70.63551330566406 -63.2196044921875 -69.04670715332031 C -43.28297424316406 -61.58366394042969 140.9999847412109 0 140.9999847412109 0 C 150.5887756347656 1.954544067382813 157.1652374267578 8.76776123046875 160.9999847412109 20 L 235.8671875 209.8562622070313 C 235.8671875 220.9019622802734 231.9027709960938 225.9525756835938 220.8571166992188 225.9525756835938 L 19.99998474121094 170 C 8.081436157226563 166.4512176513672 3.5906982421875 158.8608856201172 -1.52587890625e-05 150 L -78.22967529296875 -52.95037841796875 C -80.93855285644531 -61.83387756347656 -82.43408203125 -71.32962036132813 -73.2265625 -71.32962036132813 Z" stroke="none" fill="#d90429"/>
        </g>
      </g>
    </g>
  </g>
</svg>
